<svg width="3401" height="600" viewBox="0 0 3401 600" fill="none" xmlns="http://www.w3.org/2000/svg">
<path d="M853.14 473V137H994.74C1030.58 137 1062.1 144.04 1089.3 158.12C1116.82 172.2 1138.1 191.88 1153.14 217.16C1168.5 242.44 1176.18 271.72 1176.18 305C1176.18 338.28 1168.5 367.56 1153.14 392.84C1138.1 418.12 1116.82 437.8 1089.3 451.88C1062.1 465.96 1030.58 473 994.74 473H853.14ZM901.14 431.24H991.86C1019.7 431.24 1043.7 425.96 1063.86 415.4C1084.34 404.84 1100.18 390.12 1111.38 371.24C1122.58 352.04 1128.18 329.96 1128.18 305C1128.18 279.72 1122.58 257.64 1111.38 238.76C1100.18 219.88 1084.34 205.16 1063.86 194.6C1043.7 184.04 1019.7 178.76 991.86 178.76H901.14V431.24ZM1406.18 476.84C1380.58 476.84 1356.74 472.52 1334.66 463.88C1312.9 455.24 1294.02 443.24 1278.02 427.88C1262.02 412.2 1249.54 393.96 1240.58 373.16C1231.62 352.36 1227.14 329.64 1227.14 305C1227.14 280.36 1231.62 257.64 1240.58 236.84C1249.54 216.04 1262.02 197.96 1278.02 182.6C1294.02 166.92 1312.9 154.76 1334.66 146.12C1356.42 137.48 1380.26 133.16 1406.18 133.16C1431.78 133.16 1455.3 137.48 1476.74 146.12C1498.5 154.44 1517.38 166.44 1533.38 182.12C1549.7 197.48 1562.18 215.56 1570.82 236.36C1579.78 257.16 1584.26 280.04 1584.26 305C1584.26 329.96 1579.78 352.84 1570.82 373.64C1562.18 394.44 1549.7 412.68 1533.38 428.36C1517.38 443.72 1498.5 455.72 1476.74 464.36C1455.3 472.68 1431.78 476.84 1406.18 476.84ZM1406.18 434.12C1424.74 434.12 1441.86 430.92 1457.54 424.52C1473.54 418.12 1487.3 409.16 1498.82 397.64C1510.66 385.8 1519.78 372.04 1526.18 356.36C1532.9 340.68 1536.26 323.56 1536.26 305C1536.26 286.44 1532.9 269.32 1526.18 253.64C1519.78 237.96 1510.66 224.36 1498.82 212.84C1487.3 201 1473.54 191.88 1457.54 185.48C1441.86 179.08 1424.74 175.88 1406.18 175.88C1387.3 175.88 1369.86 179.08 1353.86 185.48C1338.18 191.88 1324.42 201 1312.58 212.84C1300.74 224.36 1291.46 237.96 1284.74 253.64C1278.34 269.32 1275.14 286.44 1275.14 305C1275.14 323.56 1278.34 340.68 1284.74 356.36C1291.46 372.04 1300.74 385.8 1312.58 397.64C1324.42 409.16 1338.18 418.12 1353.86 424.52C1369.86 430.92 1387.3 434.12 1406.18 434.12ZM1812.67 476.84C1787.07 476.84 1763.39 472.68 1741.63 464.36C1720.19 455.72 1701.47 443.72 1685.47 428.36C1669.79 412.68 1657.47 394.44 1648.51 373.64C1639.55 352.84 1635.07 329.96 1635.07 305C1635.07 280.04 1639.55 257.16 1648.51 236.36C1657.47 215.56 1669.95 197.48 1685.95 182.12C1701.95 166.44 1720.67 154.44 1742.11 146.12C1763.87 137.48 1787.55 133.16 1813.15 133.16C1839.07 133.16 1862.91 137.64 1884.67 146.6C1906.75 155.24 1925.47 168.2 1940.83 185.48L1909.63 215.72C1896.83 202.28 1882.43 192.36 1866.43 185.96C1850.43 179.24 1833.31 175.88 1815.07 175.88C1796.19 175.88 1778.59 179.08 1762.27 185.48C1746.27 191.88 1732.35 200.84 1720.51 212.36C1708.67 223.88 1699.39 237.64 1692.67 253.64C1686.27 269.32 1683.07 286.44 1683.07 305C1683.07 323.56 1686.27 340.84 1692.67 356.84C1699.39 372.52 1708.67 386.12 1720.51 397.64C1732.35 409.16 1746.27 418.12 1762.27 424.52C1778.59 430.92 1796.19 434.12 1815.07 434.12C1833.31 434.12 1850.43 430.92 1866.43 424.52C1882.43 417.8 1896.83 407.56 1909.63 393.8L1940.83 424.04C1925.47 441.32 1906.75 454.44 1884.67 463.4C1862.91 472.36 1838.91 476.84 1812.67 476.84ZM2014.1 473V137H2053.46L2204.18 390.92H2183.06L2331.86 137H2371.22L2371.7 473H2325.62L2325.14 209.48H2336.18L2203.7 432.2H2181.62L2048.18 209.48H2060.18V473H2014.1ZM2477.34 473V137H2525.34V473H2477.34ZM2630.73 473V137H2670.09L2892.33 413H2871.69V137H2919.69V473H2880.33L2658.09 197H2678.73V473H2630.73ZM3025.06 473V137H3166.66C3202.5 137 3234.02 144.04 3261.22 158.12C3288.74 172.2 3310.02 191.88 3325.06 217.16C3340.42 242.44 3348.1 271.72 3348.1 305C3348.1 338.28 3340.42 367.56 3325.06 392.84C3310.02 418.12 3288.74 437.8 3261.22 451.88C3234.02 465.96 3202.5 473 3166.66 473H3025.06ZM3073.06 431.24H3163.78C3191.62 431.24 3215.62 425.96 3235.78 415.4C3256.26 404.84 3272.1 390.12 3283.3 371.24C3294.5 352.04 3300.1 329.96 3300.1 305C3300.1 279.72 3294.5 257.64 3283.3 238.76C3272.1 219.88 3256.26 205.16 3235.78 194.6C3215.62 184.04 3191.62 178.76 3163.78 178.76H3073.06V431.24Z" fill="white"/>
<g clip-path="url(#clip0_2044_28)">
<path d="M276.06 6.67969C292.423 0.820312 310.317 0.820312 326.798 6.67969L552.825 87.0703C582.727 97.7344 602.74 125.977 602.74 157.734V442.266C602.74 473.906 582.727 502.266 552.708 512.93L326.68 593.32C310.317 599.18 292.423 599.18 275.942 593.32L49.9144 512.93C20.0128 502.266 0 474.023 0 442.266V157.734C0 126.094 20.0128 97.7344 50.0321 87.0703L276.06 6.67969ZM301.37 77.3438L96.8857 150L301.37 222.656L505.854 150L301.37 77.3438ZM339.041 509.297L527.397 442.383V222.07L339.041 288.984V509.297Z" fill="url(#paint0_linear_2044_28)"/>
</g>
<defs>
<linearGradient id="paint0_linear_2044_28" x1="301.37" y1="2.28516" x2="301.37" y2="597.715" gradientUnits="userSpaceOnUse">
<stop stop-color="#FBFBFE"/>
<stop offset="1" stop-color="#F9F1FF"/>
</linearGradient>
<clipPath id="clip0_2044_28">
<rect width="602.74" height="600" fill="white"/>
</clipPath>
</defs>
</svg>
